<?xml version="1.0" encoding="utf-8"?>
<!-- Generator: Adobe Illustrator 26.0.1, SVG Export Plug-In . SVG Version: 6.00 Build 0)  -->
<svg version="1.1" id="Layer_1" xmlns="http://www.w3.org/2000/svg" xmlns:xlink="http://www.w3.org/1999/xlink" x="0px" y="0px"
	 viewBox="0 0 635.4 115.5" style="enable-background:new 0 0 635.4 115.5;" xml:space="preserve">

<path d="M50.4,115.5c20.5-0.3,38.4-9,38.1-30.4c-0.6-40.5-77.3-31.4-78.4-63.4C9.4,1.2,47.5-2.8,70.9,12.4
	c9.8,6.2,16,13,17.4,28.3h0.8L84.6,3.5c0,0-20.6-3.5-42.1-2.9C7.8,1.6,1.8,21.7,1.9,30.4C2.6,68,78.4,63.8,78.4,93.1
	c0,7.5-5.3,19.8-28,20.2C28,113.6,4.8,103.3,1,64.9H0l5.1,42.9C16.8,111.8,25.6,115.8,50.4,115.5z M118.2,52
	c0-56.5,64-68.8,90.6-14.7l-0.6-27.8C203.8,8,195,4,183.6,1.9c-40.6-9.1-83.4,15.7-83.4,56.5c0,31.2,28,56.6,62.7,56.8
	c25.3,0,44.8-16.8,54.1-26.9l2.2-4.3c-20.2,20.2-34.1,27.7-56.3,27.7C136.7,111.6,118.2,82.8,118.2,52z M228.6,2.4v110.9h62.2
	L311,73.6c-17.8,21.9-37.1,38.9-68,37.8V59.2h48.6v-2.4H243V4.4c55.4-0.3,64.6,27.8,76.8,41.1L297.8,2.4H228.6z M430,115.5
	l1.4-113.1h-3l-0.8,85.3L340.8,2.4h-24v0.2c5,5,12,9.1,15,15.2v95.5h2.6V18.8l59.4,57.6C404.5,89.4,419.4,100.9,430,115.5z
	 M448.7,2.4v110.9h62.2l20.2-39.7c-17.8,21.9-37.1,38.9-68,37.8V59.2h48.6v-2.4h-48.6V4.4c55.4-0.3,64.6,27.8,76.8,41.1L518,2.4
	H448.7z M596.6,115.5c20.5-0.3,38.4-9,38.1-30.4c-0.6-40.5-77.3-31.4-78.4-63.4c-0.6-20.5,37.4-24.5,60.8-9.3
	c9.8,6.2,16,13,17.4,28.3h0.8l-4.5-37.3c0,0-20.6-3.5-42.1-2.9c-34.7,1-40.8,21.1-40.6,29.8c0.6,37.6,76.5,33.4,76.5,62.7
	c0,7.5-5.3,19.8-28,20.2c-22.4,0.3-45.6-9.9-49.4-48.3h-1l5.1,42.9C563,111.8,571.8,115.8,596.6,115.5z"/>
</svg>
